PathFileType	4	(X/Y/Z)	Patient4_TMGait_0pt2_02_right_11.trc.trc
DataRate	CameraRate	NumFrames	NumMarkers	Units	OrigDataRate	OrigDataStartFrame	OrigNumFrames
40.229885057471	40.229885057471	5	33	mm	40.229885057471	36	       141
Frame#	Time	R.Midfoot.Superior			Sacral			L.Shoulder			Chest			R.Shoulder			Neck			R.ASIS			L.ASIS			R.Thigh.Superior			R.Thigh.Lateral			R.Thigh.Inferior			R.Patella			L.Thigh.Superior			L.Thigh.Lateral			L.Thigh.Inferior			L.Patella			L.Shank.Superior			L.Shank.Lateral			L.Shank.Inferior			R.Shank.Superior			R.Shank.Lateral			R.Shank.Inferior			R.Heel			R.Midfoot.Lateral			R.Toe			L.Heel			L.Midfoot.Lateral			L.Midfoot.Superior			L.Toe			L.Elbow			L.Wrist			R.Elbow			R.Wrist			
		X1	Y1	Z1	X2	Y2	Z2	X3	Y3	Z3	X4	Y4	Z4	X5	Y5	Z5	X6	Y6	Z6	X7	Y7	Z7	X8	Y8	Z8	X9	Y9	Z9	X10	Y10	Z10	X11	Y11	Z11	X12	Y12	Z12	X13	Y13	Z13	X14	Y14	Z14	X15	Y15	Z15	X16	Y16	Z16	X17	Y17	Z17	X18	Y18	Z18	X19	Y19	Z19	X20	Y20	Z20	X21	Y21	Z21	X22	Y22	Z22	X23	Y23	Z23	X24	Y24	Z24	X25	Y25	Z25	X26	Y26	Z26	X27	Y27	Z27	X28	Y28	Z28	X29	Y29	Z29	X30	Y30	Z30	X31	Y31	Z31	X32	Y32	Z32	X33	Y33	Z33	

36	24.980000000000	957.871313747127	98.260361284317	552.182301902423	702.000693871008	1011.331688502088	523.833988312660	925.874481470587	1423.737688404145	356.314897341871	1016.173763293121	1350.309199009462	521.297752038290	935.310170242991	1438.161032431210	687.699717698694	894.232300144649	1482.974180835104	523.889035962825	923.532341285124	922.565330599386	642.455640628305	915.802066306314	956.284650379156	370.335543684586	982.333188096369	742.390529085846	581.094702055323	928.738051062909	617.890825624408	641.617551327687	1000.047425049836	581.032197076450	547.812100364007	1013.994899679751	488.986329025077	548.255894744556	914.160511240320	724.236112168978	381.860345947210	800.556212707236	633.330458736155	310.000616867637	865.161301808723	536.225046051002	366.045096567038	849.654409725774	468.159399322665	367.777273403733	806.479684158821	406.205311986353	352.469034101042	691.698300948822	318.760949904914	295.582731818318	723.103845876605	191.918063000270	351.882996721531	978.633215569502	397.619045483101	555.050240480387	913.471309319007	296.647140236019	629.506666936382	931.291396035435	202.952822910346	554.720854982996	780.255315784685	43.678021156339	553.479819934672	878.074215063847	37.391158281807	607.106777291651	1078.107081317652	46.366696996692	551.122799102397	573.151966905567	47.948984620402	384.803496435077	641.308044526876	42.744155438686	300.051684917368	730.561182416965	99.792400145030	322.639626418508	852.116385877146	42.223219448951	281.739045195056	1086.256389678672	1196.010331762941	168.808621426282	1340.168557628128	1251.111095392701	173.339747839498	762.901639129370	1145.415894002080	802.712591664681	719.065218517615	885.225382246860	795.361441844247	
37	25.004857142857	953.247409328296	98.178513824265	552.282490250244	702.002385951102	1010.793469118744	528.923334209478	923.457901949289	1423.698275654662	359.975737736834	1014.817368949033	1350.454191719637	524.401414486593	934.539920997097	1437.755708238984	691.415803388946	892.815833298812	1482.988260938953	527.587071058065	924.419707513762	922.488260433754	646.047251308377	914.799406240285	956.194751392462	373.886101200426	982.376327041463	741.531100995287	584.047305004044	928.276230470307	617.062409816756	644.257339008948	998.904740784877	580.185173077465	549.962270887288	1012.378920643834	487.891415906854	549.959840414726	913.481887228463	724.066575211396	384.800578662208	799.275769432902	633.467901973835	313.237519770568	864.298018393330	535.914978405723	368.261687470551	848.913518243441	467.374450763318	369.413847555160	804.792591783506	405.992340451174	354.293969235413	688.858217734740	319.832374084155	297.731050790187	719.629636965331	192.390568075974	353.013273592479	976.216017627903	396.696462375975	556.425136553894	910.437931704728	295.731011594590	630.487121558671	927.411812564441	202.377611504210	555.269447981990	775.585939120816	43.328770592811	553.575956392046	873.480344652139	37.096819543792	607.137446827143	1073.589471935255	46.413844730142	551.051179217566	568.621225556575	49.484312165440	385.815518670461	636.448082865265	43.975116010352	300.804058232560	726.257564689411	100.220933746804	323.278714459757	847.263945983083	41.900280187919	281.693184071967	1080.063714265180	1190.701196790572	172.539201634766	1335.903004965603	1238.944233004421	176.208180481511	765.694634668544	1142.943066216862	808.209744617220	725.266781872610	882.350513798764	802.919904470022	
38	25.029714285714	948.665132938928	98.085416701924	552.333371742496	701.702534667318	1010.011569398080	533.732928568003	920.611342392099	1423.513117947516	363.331364633471	1013.106895940549	1350.411442646996	527.120056188084	933.463794975316	1436.997334338508	694.857878106965	891.104028347880	1482.821269537485	530.994344375762	925.035258138187	922.223985979280	649.348832481816	913.477340940463	955.948115083096	377.161439052466	982.335700908312	740.606273393326	586.764197406539	927.759414580858	616.153764344262	646.640678409227	997.812502418534	579.288576871226	551.909423051960	1010.860266515402	486.722774437842	551.487055815970	913.393718048567	723.919513384688	387.587738679599	799.033835019194	633.150111459282	316.419763203248	864.822416918597	535.382184254561	370.526822050351	849.772395850549	466.104786810604	370.976385668375	804.329825419346	405.363983826698	356.156288864783	686.946476418838	320.912053775196	300.002448147945	716.631095117501	192.827319829690	354.261549779070	973.872908916188	395.717775130779	557.659216161579	907.432847818395	294.831966849914	631.357206150698	923.580405613188	201.793014912852	555.757585206494	770.962849384488	43.024570963005	553.643135340033	868.916422025809	36.834491570204	607.139562378799	1069.084312018234	46.419185082646	550.955241522501	564.164294526121	51.474753122138	387.059051646162	631.557531617157	45.538309381004	301.722316640875	722.047468935336	100.752779260931	324.035827510770	842.316189490583	41.495320788244	281.636519468082	1072.269114944906	1184.264643902259	176.070725184107	1330.172295724844	1224.291658569069	178.613637445809	768.821950136951	1139.678444421517	813.313994408557	732.329405369557	878.638583985815	810.108030703411	
39	25.054571428571	944.062304395983	97.978498557990	552.331015523552	701.108201283591	1008.929314513840	538.272897505714	917.344000485615	1423.133250334261	366.394786562105	1011.055882839057	1350.147731334921	529.477158970036	932.081563207379	1435.855067205057	698.037647167042	889.085559644885	1482.427899469843	534.121702563644	925.407280319753	921.746273201518	652.381339897015	911.863586525056	955.494828857635	380.194268374660	982.280212294335	739.610719898928	589.246285100952	927.287636949513	615.139427220431	648.750987892799	996.888462747959	578.339370683119	553.636277945504	1009.573803413280	485.456304316365	552.816800187277	913.959951374094	723.794799533880	390.245191669019	799.977781655952	632.339630416465	319.511379473942	866.920741548790	534.624708381218	372.812995599394	852.394392762785	464.345344342515	372.434815234908	805.265131323946	404.304102351190	358.025293506171	686.120080607074	322.063527098357	302.386576214536	714.201666231608	193.298054716897	355.624794792154	971.704835333927	394.660056582837	558.729734842118	904.516423360722	293.962145778275	632.100960372794	919.803595551957	201.194339377994	556.169277973638	766.312299889858	42.810149185994	553.678149584160	864.305077148311	36.634177457008	607.115451647836	1064.523340492319	46.347544966288	550.855537438363	559.830783962743	54.106957920486	388.550164635835	626.671768270429	47.580398714284	302.825760061779	717.986124120580	101.453245061983	324.917918943215	837.253090164292	41.000521806212	281.585107964083	1062.786012660639	1176.645434043915	179.553202626848	1322.721203071933	1206.901652122813	180.738946284955	772.529956794777	1135.495583693338	818.027129346636	740.671875355601	873.949962347448	816.909990537486	
40	25.079428571429	939.402275927228	97.850928060617	552.270414158331	700.224822457105	1007.493922587952	542.559988550762	913.663951117575	1422.508592959497	369.175038908613	1008.675978299691	1349.630631205409	531.493992985675	930.401658620412	1434.314243318607	700.962377978796	886.748546105903	1481.766917235412	536.978854877748	925.565515158891	921.037892467610	655.163866848990	909.976324304471	954.784941450029	383.013526355330	982.260590964960	738.538669807657	591.490438689834	926.944892397931	613.995841551810	650.575843778055	996.215920471728	577.334103848756	555.118984681660	1008.615483274307	484.073564536490	553.919128539428	915.192042201272	723.703029617178	392.791058959227	802.194428032431	631.036780803253	322.458092609533	870.706275047786	533.676323202087	375.068704648018	856.861664536038	462.142997043670	373.744995802224	807.721774108161	402.834876015531	359.848143101613	686.507462630009	323.362895535158	304.856819972504	712.435254096868	193.891910142129	357.083087355864	969.787441628460	393.502666876838	559.610494828081	901.739741469430	293.121695925978	632.699545592690	916.094494415484	200.570717041316	556.488724651385	761.591485311578	42.702826637518	553.681471705713	859.605633903621	36.507575325184	607.068968748717	1059.873880519568	46.180876666718	550.766372388107	555.702261048364	57.571437832185	390.297997793781	621.853278746679	50.256553741221	304.125534551135	714.149592827372	102.395541230310	325.918201745597	832.069242846490	40.412839534950	281.541081210541	1051.568268305294	1167.852774113065	183.136829810185	1313.258551199536	1186.552782344566	182.783395698931	777.072102754645	1130.319157922726	822.338499188751	750.723832220971	868.217647673840	823.280153438512	
